# Blender v2.83.1 OBJ File: ''
# www.blender.org
mtllib wall.mtl
o wall_Plane
v -2.371814 0.000000 1.175498
v 2.371814 0.000000 1.175498
v -2.371814 0.000000 -1.175498
v 2.371814 0.000000 -1.175498
v -2.400000 0.000000 1.200000
v 2.400000 0.000000 1.200000
v -2.400000 0.000000 -1.200000
v 2.400000 0.000000 -1.200000
v -2.371814 1.200000 -1.175498
v -2.371814 1.200000 1.175498
v 2.371814 1.200000 1.175498
v 2.371814 1.200000 -1.175498
v -2.400000 1.200000 -1.200000
v -2.400000 1.200000 1.200000
v 2.400000 1.200000 1.200000
v 2.400000 1.200000 -1.200000
vt 1.000000 1.000000
vt 1.000000 1.000000
vt 0.000000 1.000000
vt 0.000000 1.000000
vt 0.000000 0.000000
vt 0.000000 0.000000
vt 1.000000 0.000000
vt 1.000000 0.000000
vt 1.000000 1.000000
vt 0.000000 1.000000
vt 0.000000 1.000000
vt 1.000000 1.000000
vt 0.000000 0.000000
vt 1.000000 0.000000
vt 1.000000 0.000000
vt 0.000000 0.000000
vn 0.0000 1.0000 0.0000
vn 0.0000 -1.0000 0.0000
vn 0.0000 0.0000 -1.0000
vn 0.0000 0.0000 1.0000
vn -1.0000 0.0000 0.0000
vn 1.0000 0.0000 0.0000
usemtl None
s off
f 4/1/1 8/2/1 7/3/1 3/4/1
f 1/5/1 5/6/1 6/7/1 2/8/1
f 2/8/1 6/7/1 8/2/1 4/1/1
f 3/4/1 7/3/1 5/6/1 1/5/1
f 12/9/2 9/10/2 13/11/2 16/12/2
f 10/13/2 11/14/2 15/15/2 14/16/2
f 11/14/2 12/9/2 16/12/2 15/15/2
f 9/10/2 10/13/2 14/16/2 13/11/2
f 4/1/3 3/4/3 9/10/3 12/9/3
f 1/5/4 2/8/4 11/14/4 10/13/4
f 8/2/5 6/7/5 15/15/5 16/12/5
f 5/6/6 7/3/6 13/11/6 14/16/6
f 2/8/6 4/1/6 12/9/6 11/14/6
f 3/4/5 1/5/5 10/13/5 9/10/5
f 7/3/4 8/2/4 16/12/4 13/11/4
f 6/7/3 5/6/3 14/16/3 15/15/3
