# Blender v2.83.1 OBJ File: 'eye.blend'
# www.blender.org
mtllib iris.mtl
v -0.034440 -0.006850 0.000000
v -0.030609 -0.016865 0.000000
v -0.029196 -0.019508 0.000000
v -0.034440 -0.006719 -0.001336
v -0.030609 -0.016541 -0.003290
v -0.029196 -0.019134 -0.003806
v -0.034440 -0.006329 -0.002622
v -0.030609 -0.015582 -0.006454
v -0.029196 -0.018023 -0.007466
v -0.034440 -0.005696 -0.003806
v -0.030609 -0.014023 -0.009370
v -0.029196 -0.016221 -0.010838
v -0.034440 -0.004844 -0.004844
v -0.030609 -0.011926 -0.011926
v -0.029196 -0.013795 -0.013795
v -0.034440 -0.003806 -0.005696
v -0.030609 -0.009370 -0.014023
v -0.029196 -0.010838 -0.016221
v -0.034440 -0.002622 -0.006329
v -0.030609 -0.006454 -0.015582
v -0.029196 -0.007466 -0.018023
v -0.034440 -0.001336 -0.006719
v -0.030609 -0.003290 -0.016541
v -0.029196 -0.003806 -0.019134
v -0.034440 0.000000 -0.006850
v -0.030609 0.000000 -0.016865
v -0.029196 0.000000 -0.019508
v -0.034440 0.001336 -0.006719
v -0.030609 0.003290 -0.016541
v -0.029196 0.003806 -0.019134
v -0.034440 0.002622 -0.006329
v -0.030609 0.006454 -0.015582
v -0.029196 0.007466 -0.018023
v -0.034440 0.003806 -0.005696
v -0.030609 0.009370 -0.014023
v -0.029196 0.010838 -0.016221
v -0.034440 0.004844 -0.004844
v -0.030609 0.011926 -0.011926
v -0.029196 0.013795 -0.013795
v -0.034440 0.005696 -0.003806
v -0.030609 0.014023 -0.009370
v -0.029196 0.016221 -0.010838
v -0.034440 0.006329 -0.002622
v -0.030609 0.015582 -0.006454
v -0.029196 0.018023 -0.007466
v -0.034440 0.006719 -0.001336
v -0.030609 0.016541 -0.003290
v -0.029196 0.019134 -0.003806
v -0.034440 0.006850 0.000000
v -0.030609 0.016865 0.000000
v -0.029196 0.019508 0.000000
v -0.034440 0.006719 0.001336
v -0.030609 0.016541 0.003290
v -0.029196 0.019134 0.003806
v -0.034440 0.006329 0.002622
v -0.030609 0.015582 0.006454
v -0.029196 0.018023 0.007466
v -0.034440 0.005696 0.003806
v -0.030609 0.014023 0.009370
v -0.029196 0.016221 0.010838
v -0.035114 0.000000 0.000000
v -0.034440 0.004844 0.004844
v -0.030609 0.011926 0.011926
v -0.029196 0.013795 0.013795
v -0.034440 0.003806 0.005696
v -0.030609 0.009370 0.014023
v -0.029196 0.010838 0.016221
v -0.034440 0.002622 0.006329
v -0.030609 0.006454 0.015582
v -0.029196 0.007466 0.018023
v -0.034440 0.001336 0.006719
v -0.030609 0.003290 0.016541
v -0.029196 0.003806 0.019134
v -0.034440 0.000000 0.006850
v -0.030609 0.000000 0.016865
v -0.029196 0.000000 0.019508
v -0.034440 -0.001336 0.006719
v -0.030609 -0.003290 0.016541
v -0.029196 -0.003806 0.019134
v -0.034440 -0.002622 0.006329
v -0.030609 -0.006454 0.015582
v -0.029196 -0.007466 0.018023
v -0.034440 -0.003806 0.005696
v -0.030609 -0.009370 0.014023
v -0.029196 -0.010838 0.016221
v -0.034440 -0.004844 0.004844
v -0.030609 -0.011926 0.011926
v -0.029196 -0.013795 0.013795
v -0.034440 -0.005696 0.003806
v -0.030609 -0.014023 0.009370
v -0.029196 -0.016221 0.010838
v -0.034440 -0.006329 0.002622
v -0.030609 -0.015582 0.006454
v -0.029196 -0.018023 0.007466
v -0.034440 -0.006719 0.001336
v -0.030609 -0.016541 0.003290
v -0.029196 -0.019134 0.003806
vt 0.750000 0.937500
vt 0.734375 1.000000
vt 0.718750 0.937500
vt 0.750000 0.839710
vt 0.718750 0.839710
vt 0.750000 0.812500
vt 0.718750 0.812500
vt 0.703125 1.000000
vt 0.687500 0.937500
vt 0.687500 0.839710
vt 0.687500 0.812500
vt 0.656250 0.839710
vt 0.656250 0.812500
vt 0.671875 1.000000
vt 0.656250 0.937500
vt 0.640625 1.000000
vt 0.625000 0.937500
vt 0.625000 0.839711
vt 0.625000 0.812500
vt 0.593750 0.839710
vt 0.593750 0.812500
vt 0.609375 1.000000
vt 0.593750 0.937500
vt 0.578125 1.000000
vt 0.562500 0.937500
vt 0.562500 0.839710
vt 0.562500 0.812500
vt 0.546875 1.000000
vt 0.531250 0.937500
vt 0.531250 0.839710
vt 0.531250 0.812500
vt 0.515625 1.000000
vt 0.500000 0.937500
vt 0.500000 0.839710
vt 0.500000 0.812500
vt 0.484374 1.000000
vt 0.468750 0.937500
vt 0.468750 0.839710
vt 0.468750 0.812500
vt 0.453124 1.000000
vt 0.437500 0.937500
vt 0.437500 0.839710
vt 0.437500 0.812500
vt 0.421874 1.000000
vt 0.406250 0.937500
vt 0.406250 0.839710
vt 0.406250 0.812500
vt 0.375000 0.937500
vt 0.375000 0.839710
vt 0.375000 0.812500
vt 0.390625 1.000000
vt 0.359375 1.000000
vt 0.343750 0.937500
vt 0.343750 0.839710
vt 0.343750 0.812500
vt 0.312500 0.937500
vt 0.312500 0.839710
vt 0.312500 0.812500
vt 0.328125 1.000000
vt 0.296875 1.000000
vt 0.281250 0.937500
vt 0.281250 0.839710
vt 0.281250 0.812500
vt 0.250000 0.839710
vt 0.250000 0.812500
vt 0.265625 1.000000
vt 0.250000 0.937500
vt 0.234375 1.000000
vt 0.218750 0.937500
vt 0.218750 0.839710
vt 0.218750 0.812500
vt 0.187500 0.839710
vt 0.187500 0.812500
vt 0.203125 1.000000
vt 0.187500 0.937500
vt 0.171875 1.000000
vt 0.156250 0.937500
vt 0.156250 0.839710
vt 0.156250 0.812500
vt 0.140625 1.000000
vt 0.125000 0.937500
vt 0.125000 0.839710
vt 0.125000 0.812500
vt 0.109375 1.000000
vt 0.093750 0.937500
vt 0.093750 0.839710
vt 0.093750 0.812500
vt 0.078125 1.000000
vt 0.062500 0.937500
vt 0.062500 0.839710
vt 0.062500 0.812500
vt 0.046875 1.000000
vt 0.031250 0.937500
vt 0.031250 0.839710
vt 0.031250 0.812500
vt 0.015625 1.000000
vt 0.000000 0.937500
vt 0.000000 0.839710
vt 0.000000 0.812500
vt 1.000000 0.839711
vt 1.000000 0.937500
vt 0.968750 0.937500
vt 0.968750 0.839710
vt 1.000000 0.812500
vt 0.968750 0.812500
vt 0.984375 1.000000
vt 0.953125 1.000000
vt 0.937500 0.937500
vt 0.937500 0.839711
vt 0.937500 0.812500
vt 0.906250 0.937500
vt 0.906250 0.839711
vt 0.906250 0.812500
vt 0.921875 1.000000
vt 0.890625 1.000000
vt 0.875000 0.937500
vt 0.875000 0.839711
vt 0.875000 0.812500
vt 0.843750 0.839711
vt 0.843750 0.812500
vt 0.859375 1.000000
vt 0.843750 0.937500
vt 0.828125 1.000000
vt 0.812500 0.937500
vt 0.812500 0.839711
vt 0.812500 0.812500
vt 0.796875 1.000000
vt 0.781250 0.937500
vt 0.781250 0.839711
vt 0.781250 0.812500
vt 0.765625 1.000000
vn -0.9714 -0.2375 0.0000
vn -1.0000 0.0000 0.0000
vn -0.9714 -0.2329 -0.0463
vn -0.9083 -0.4183 0.0000
vn -0.9083 -0.4103 -0.0816
vn -0.8819 -0.4714 0.0000
vn -0.8819 -0.4623 -0.0920
vn -0.9714 -0.2194 -0.0909
vn -0.9083 -0.3865 -0.1601
vn -0.8819 -0.4355 -0.1804
vn -0.9083 -0.3478 -0.2324
vn -0.8819 -0.3919 -0.2619
vn -0.9714 -0.1975 -0.1319
vn -0.9714 -0.1679 -0.1679
vn -0.9083 -0.2958 -0.2958
vn -0.8819 -0.3333 -0.3333
vn -0.9083 -0.2324 -0.3478
vn -0.8819 -0.2619 -0.3919
vn -0.9714 -0.1319 -0.1975
vn -0.9714 -0.0909 -0.2194
vn -0.9083 -0.1601 -0.3865
vn -0.8819 -0.1804 -0.4355
vn -0.9714 -0.0463 -0.2329
vn -0.9083 -0.0816 -0.4103
vn -0.8819 -0.0920 -0.4623
vn -0.9714 0.0000 -0.2375
vn -0.9083 0.0000 -0.4183
vn -0.8819 0.0000 -0.4714
vn -0.9714 0.0463 -0.2329
vn -0.9083 0.0816 -0.4103
vn -0.8819 0.0920 -0.4623
vn -0.9714 0.0909 -0.2194
vn -0.9083 0.1601 -0.3865
vn -0.8819 0.1804 -0.4355
vn -0.9714 0.1319 -0.1975
vn -0.9083 0.2324 -0.3478
vn -0.8819 0.2619 -0.3919
vn -0.9714 0.1679 -0.1679
vn -0.9083 0.2958 -0.2958
vn -0.8819 0.3333 -0.3333
vn -0.9714 0.1975 -0.1319
vn -0.9083 0.3478 -0.2324
vn -0.8819 0.3919 -0.2619
vn -0.9714 0.2194 -0.0909
vn -0.9083 0.3865 -0.1601
vn -0.8819 0.4355 -0.1804
vn -0.9714 0.2329 -0.0463
vn -0.9083 0.4103 -0.0816
vn -0.8819 0.4623 -0.0920
vn -0.9083 0.4183 0.0000
vn -0.8819 0.4714 0.0000
vn -0.9714 0.2375 0.0000
vn -0.9714 0.2329 0.0463
vn -0.9083 0.4103 0.0816
vn -0.8819 0.4623 0.0920
vn -0.9083 0.3865 0.1601
vn -0.8819 0.4355 0.1804
vn -0.9714 0.2194 0.0909
vn -0.9714 0.1975 0.1319
vn -0.9083 0.3478 0.2324
vn -0.8819 0.3919 0.2619
vn -0.9714 0.1679 0.1679
vn -0.9083 0.2958 0.2958
vn -0.8819 0.3333 0.3333
vn -0.9714 0.1319 0.1975
vn -0.9083 0.2324 0.3478
vn -0.8819 0.2619 0.3919
vn -0.9714 0.0909 0.2194
vn -0.9083 0.1601 0.3865
vn -0.8819 0.1804 0.4355
vn -0.9714 0.0463 0.2329
vn -0.9083 0.0816 0.4103
vn -0.8819 0.0920 0.4623
vn -0.9714 0.0000 0.2375
vn -0.9083 0.0000 0.4183
vn -0.8819 0.0000 0.4714
vn -0.9714 -0.0463 0.2329
vn -0.9083 -0.0816 0.4103
vn -0.8819 -0.0920 0.4623
vn -0.9714 -0.0909 0.2194
vn -0.9083 -0.1601 0.3865
vn -0.8819 -0.1804 0.4355
vn -0.9714 -0.1319 0.1975
vn -0.9083 -0.2324 0.3478
vn -0.8819 -0.2619 0.3919
vn -0.9714 -0.1679 0.1679
vn -0.9083 -0.2958 0.2958
vn -0.8819 -0.3333 0.3333
vn -0.9083 -0.3478 0.2324
vn -0.8819 -0.3919 0.2619
vn -0.9714 -0.1975 0.1319
vn -0.9714 -0.2194 0.0909
vn -0.9083 -0.3865 0.1601
vn -0.8819 -0.4355 0.1804
vn -0.9714 -0.2329 0.0463
vn -0.9083 -0.4103 0.0816
vn -0.8819 -0.4623 0.0920
usemtl Material.002
s 1
f 1/1/1 61/2/2 4/3/3
f 2/4/4 1/1/1 4/3/3 5/5/5
f 3/6/6 2/4/4 5/5/5 6/7/7
f 4/3/3 61/8/2 7/9/8
f 5/5/5 4/3/3 7/9/8 8/10/9
f 6/7/7 5/5/5 8/10/9 9/11/10
f 9/11/10 8/10/9 11/12/11 12/13/12
f 7/9/8 61/14/2 10/15/13
f 8/10/9 7/9/8 10/15/13 11/12/11
f 10/15/13 61/16/2 13/17/14
f 11/12/11 10/15/13 13/17/14 14/18/15
f 12/13/12 11/12/11 14/18/15 15/19/16
f 15/19/16 14/18/15 17/20/17 18/21/18
f 13/17/14 61/22/2 16/23/19
f 14/18/15 13/17/14 16/23/19 17/20/17
f 16/23/19 61/24/2 19/25/20
f 17/20/17 16/23/19 19/25/20 20/26/21
f 18/21/18 17/20/17 20/26/21 21/27/22
f 19/25/20 61/28/2 22/29/23
f 20/26/21 19/25/20 22/29/23 23/30/24
f 21/27/22 20/26/21 23/30/24 24/31/25
f 22/29/23 61/32/2 25/33/26
f 23/30/24 22/29/23 25/33/26 26/34/27
f 24/31/25 23/30/24 26/34/27 27/35/28
f 25/33/26 61/36/2 28/37/29
f 26/34/27 25/33/26 28/37/29 29/38/30
f 27/35/28 26/34/27 29/38/30 30/39/31
f 28/37/29 61/40/2 31/41/32
f 29/38/30 28/37/29 31/41/32 32/42/33
f 30/39/31 29/38/30 32/42/33 33/43/34
f 31/41/32 61/44/2 34/45/35
f 32/42/33 31/41/32 34/45/35 35/46/36
f 33/43/34 32/42/33 35/46/36 36/47/37
f 35/46/36 34/45/35 37/48/38 38/49/39
f 36/47/37 35/46/36 38/49/39 39/50/40
f 34/45/35 61/51/2 37/48/38
f 37/48/38 61/52/2 40/53/41
f 38/49/39 37/48/38 40/53/41 41/54/42
f 39/50/40 38/49/39 41/54/42 42/55/43
f 41/54/42 40/53/41 43/56/44 44/57/45
f 42/55/43 41/54/42 44/57/45 45/58/46
f 40/53/41 61/59/2 43/56/44
f 43/56/44 61/60/2 46/61/47
f 44/57/45 43/56/44 46/61/47 47/62/48
f 45/58/46 44/57/45 47/62/48 48/63/49
f 48/63/49 47/62/48 50/64/50 51/65/51
f 46/61/47 61/66/2 49/67/52
f 47/62/48 46/61/47 49/67/52 50/64/50
f 49/67/52 61/68/2 52/69/53
f 50/64/50 49/67/52 52/69/53 53/70/54
f 51/65/51 50/64/50 53/70/54 54/71/55
f 54/71/55 53/70/54 56/72/56 57/73/57
f 52/69/53 61/74/2 55/75/58
f 53/70/54 52/69/53 55/75/58 56/72/56
f 55/75/58 61/76/2 58/77/59
f 56/72/56 55/75/58 58/77/59 59/78/60
f 57/73/57 56/72/56 59/78/60 60/79/61
f 58/77/59 61/80/2 62/81/62
f 59/78/60 58/77/59 62/81/62 63/82/63
f 60/79/61 59/78/60 63/82/63 64/83/64
f 62/81/62 61/84/2 65/85/65
f 63/82/63 62/81/62 65/85/65 66/86/66
f 64/83/64 63/82/63 66/86/66 67/87/67
f 65/85/65 61/88/2 68/89/68
f 66/86/66 65/85/65 68/89/68 69/90/69
f 67/87/67 66/86/66 69/90/69 70/91/70
f 68/89/68 61/92/2 71/93/71
f 69/90/69 68/89/68 71/93/71 72/94/72
f 70/91/70 69/90/69 72/94/72 73/95/73
f 71/93/71 61/96/2 74/97/74
f 72/94/72 71/93/71 74/97/74 75/98/75
f 73/95/73 72/94/72 75/98/75 76/99/76
f 75/100/75 74/101/74 77/102/77 78/103/78
f 76/104/76 75/100/75 78/103/78 79/105/79
f 74/101/74 61/106/2 77/102/77
f 77/102/77 61/107/2 80/108/80
f 78/103/78 77/102/77 80/108/80 81/109/81
f 79/105/79 78/103/78 81/109/81 82/110/82
f 81/109/81 80/108/80 83/111/83 84/112/84
f 82/110/82 81/109/81 84/112/84 85/113/85
f 80/108/80 61/114/2 83/111/83
f 83/111/83 61/115/2 86/116/86
f 84/112/84 83/111/83 86/116/86 87/117/87
f 85/113/85 84/112/84 87/117/87 88/118/88
f 88/118/88 87/117/87 90/119/89 91/120/90
f 86/116/86 61/121/2 89/122/91
f 87/117/87 86/116/86 89/122/91 90/119/89
f 89/122/91 61/123/2 92/124/92
f 90/119/89 89/122/91 92/124/92 93/125/93
f 91/120/90 90/119/89 93/125/93 94/126/94
f 92/124/92 61/127/2 95/128/95
f 93/125/93 92/124/92 95/128/95 96/129/96
f 94/126/94 93/125/93 96/129/96 97/130/97
f 95/128/95 61/131/2 1/1/1
f 96/129/96 95/128/95 1/1/1 2/4/4
f 97/130/97 96/129/96 2/4/4 3/6/6
